<?xml version="1.0" encoding="UTF-8"?>
<svg width="209px" height="210px" viewBox="0 0 209 210" version="1.1" xmlns="http://www.w3.org/2000/svg" xmlns:xlink="http://www.w3.org/1999/xlink">
    <!-- Generator: Sketch 48.2 (47327) - http://www.bohemiancoding.com/sketch -->
    <title>Moon wallet 3-08</title>
    <desc>Created with Sketch.</desc>
    <defs>
        <linearGradient x1="13.7771959%" y1="88.1981685%" x2="82.7265314%" y2="15.5076511%" id="linearGradient-1">
            <stop stop-color="#40BDFF" offset="0.04380841%"></stop>
            <stop stop-color="#E0DCBD" offset="100%"></stop>
        </linearGradient>
        <linearGradient x1="-95.8970565%" y1="205.438336%" x2="471.846396%" y2="-399.650581%" id="linearGradient-2">
            <stop stop-color="#40BDFF" offset="0.04380841%"></stop>
            <stop stop-color="#E0DCBD" offset="100%"></stop>
        </linearGradient>
        <linearGradient x1="-221.119972%" y1="338.796749%" x2="346.623481%" y2="-266.292168%" id="linearGradient-3">
            <stop stop-color="#40BDFF" offset="0.04380841%"></stop>
            <stop stop-color="#E0DCBD" offset="100%"></stop>
        </linearGradient>
        <linearGradient x1="-300.457042%" y1="421.294104%" x2="268.695019%" y2="-181.759944%" id="linearGradient-4">
            <stop stop-color="#40BDFF" offset="0.04380841%"></stop>
            <stop stop-color="#E0DCBD" offset="100%"></stop>
        </linearGradient>
        <linearGradient x1="-197.647273%" y1="311.831982%" x2="370.269212%" y2="-288.846355%" id="linearGradient-5">
            <stop stop-color="#40BDFF" offset="0.04380841%"></stop>
            <stop stop-color="#E0DCBD" offset="100%"></stop>
        </linearGradient>
        <linearGradient x1="-45.278041%" y1="148.891011%" x2="218.818156%" y2="-120.538572%" id="linearGradient-6">
            <stop stop-color="#40BDFF" offset="0.04380841%"></stop>
            <stop stop-color="#E0DCBD" offset="100%"></stop>
        </linearGradient>
        <linearGradient x1="-120.53781%" y1="230.967275%" x2="258.419506%" y2="-169.900747%" id="linearGradient-7">
            <stop stop-color="#40BDFF" offset="0.04380841%"></stop>
            <stop stop-color="#E0DCBD" offset="100%"></stop>
        </linearGradient>
    </defs>
    <g id="Page-1" stroke="none" stroke-width="1" fill="none" fill-rule="evenodd">
        <g id="Moon-wallet-3-08" transform="translate(-1.000000, -1.000000)" fill-rule="nonzero">
            <path d="M196.2,54.2 C195.9,53.6 195.5,53 195.2,52.4 C193.5,49.5 191.6,46.7 189.7,44 C187.8,41.5 184.3,41 181.8,42.8 C180.3,43.9 179.4,45.7 179.5,47.6 L179.5,47.7 C179.8,56.7 172.7,64.3 163.7,64.6 C154.7,64.9 147.1,57.8 146.8,48.8 C146.6,42.8 149.7,37.2 154.9,34.1 C157.7,32.5 160.8,31.7 164,31.9 C165.5,32 166.9,31.6 168.1,30.6 C169.3,29.6 170,28.3 170.1,26.8 C170.3,24.9 169.4,22.9 167.9,21.7 C134.3,-3.2 89.3,-5.9 53.2,15 C29.1,28.8 11.9,51.3 4.6,78.3 C-2.6,105.3 1,133.4 14.9,157.5 C34.1,191.2 69.4,210.1 105.7,210.1 C123.2,210.1 140.9,205.7 157.2,196.4 C207.2,168 224.6,104.2 196.2,54.2 Z M153.7,190.4 C107.1,216.9 47.6,200.6 21,154 C8,131.6 4.6,105.3 11.4,80.1 C18.1,54.9 34.2,33.9 56.7,21 C61.1,18.5 65.6,16.3 70.3,14.5 C69.6,15.2 69,16 68.4,16.7 C62.5,24.3 59.8,33.8 61,43.4 C62.2,53 67,61.6 74.7,67.5 C81.1,72.5 89,75.1 97,75.1 C98.8,75.1 100.5,75 102.3,74.7 C104.2,74.4 105.5,72.6 105.2,70.7 C104.9,68.8 103.1,67.5 101.2,67.8 C93.3,69 85.2,66.8 79,61.9 C66.3,52 64,33.6 73.9,20.9 C83.8,8.2 102.2,5.9 114.9,15.8 C127.6,25.7 129.9,44.1 120,56.8 C118.8,58.3 119.1,60.5 120.6,61.7 C122.1,62.9 124.3,62.6 125.5,61.1 C137.8,45.4 134.9,22.6 119.2,10.3 C118.4,9.6 117.5,9 116.6,8.5 C132,10.3 147.1,15.8 160.3,24.9 C157.1,25.3 154,26.3 151.1,28 C143.7,32.3 139.3,40.4 139.6,48.9 C140,61.8 150.9,71.9 163.8,71.4 C175.4,71 184.7,62.2 186.2,51.1 C187.2,52.6 188.2,54.2 189.1,55.8 C189.4,56.4 189.8,56.9 190.1,57.5 C197.9,71.2 202,86.1 202.7,100.9 C198.3,91.6 190,84.1 179.3,81.1 C169.6,78.4 159.1,79.8 150.4,84.9 C148.7,85.9 148.2,88 149.2,89.7 C150.2,91.4 152.3,91.9 154,90.9 C161,86.7 169.6,85.6 177.4,87.8 C185.1,90 191.5,95 195.4,102 C199.3,109 200.3,117.1 198.1,124.8 C195.9,132.5 190.9,138.9 183.9,142.8 C176.9,146.7 168.8,147.7 161.1,145.5 C153.4,143.3 147,138.3 143.1,131.3 C139.2,124.3 138.2,116.2 140.4,108.5 C140.9,106.6 139.8,104.7 138,104.2 C136.1,103.7 134.2,104.8 133.7,106.6 C131,116.1 132.2,126.1 137.1,134.7 C142,143.3 149.8,149.5 159.4,152.2 C162.7,153.1 166.1,153.6 169.5,153.6 C175.8,153.6 181.9,152 187.6,148.8 C190.6,147.1 193.2,145.1 195.6,142.8 C187.4,162.4 173.2,179.3 153.7,190.4 Z" id="Shape" fill="url(#linearGradient-1)"></path>
            <path d="M66.4,132 C66.1,130.1 64.3,128.8 62.3,129.2 C60.4,129.5 59.1,131.3 59.5,133.3 L59.5,133.5 C59.9,136.6 57.8,139.4 54.7,139.9 C53.2,140.1 51.7,139.7 50.5,138.8 C49.3,137.9 48.5,136.6 48.3,135.1 C47.9,132 50,129.2 53.1,128.7 C55,128.4 56.3,126.6 56.1,124.7 C55.8,122.8 54,121.5 52.1,121.7 C45.2,122.7 40.4,129.1 41.4,136 C41.9,139.3 43.6,142.3 46.4,144.3 C48.6,145.9 51.2,146.8 53.9,146.8 C54.5,146.8 55.1,146.8 55.8,146.7 C62.7,145.7 67.5,139.3 66.5,132.4 L66.4,132 Z" id="Shape" fill="url(#linearGradient-2)"></path>
            <path d="M50.3,77.9 C57.2,76.9 62,70.5 61,63.6 C61,63.5 61,63.3 60.9,63.2 C60.6,61.3 58.7,60 56.8,60.4 C54.9,60.7 53.6,62.6 54,64.5 L54,64.7 C54.4,67.8 52.3,70.6 49.2,71.1 C46.1,71.5 43.3,69.4 42.8,66.3 C42.4,63.2 44.5,60.4 47.6,59.9 C49.5,59.6 50.8,57.8 50.6,55.9 C50.4,54 48.5,52.7 46.6,52.9 C39.7,53.9 34.9,60.3 35.9,67.2 C36.9,73.5 42.3,78 48.5,78 C49.1,78 49.7,77.9 50.3,77.9 Z" id="Shape" fill="url(#linearGradient-3)"></path>
            <path d="M131.2,90.6 C131,88.7 129.2,87.3 127.3,87.5 C125.4,87.7 124,89.5 124.2,91.4 L124.2,91.6 C124.3,93.1 123.9,94.6 122.9,95.7 C121.9,96.8 120.6,97.6 119.1,97.7 C117.6,97.8 116.1,97.4 115,96.4 C113.8,95.4 113.1,94.1 113,92.6 C112.9,91.1 113.3,89.6 114.3,88.5 C115.3,87.4 116.6,86.6 118.1,86.5 C120,86.3 121.4,84.6 121.3,82.7 C121.2,80.8 119.4,79.4 117.5,79.5 C114.1,79.8 111.1,81.4 109,84 C106.8,86.6 105.8,89.9 106.1,93.2 C106.7,99.7 112.2,104.7 118.7,104.7 C119.1,104.7 119.5,104.7 119.9,104.6 C123.3,104.3 126.3,102.7 128.4,100.1 C130.5,97.5 131.6,94.2 131.3,90.9 C131.2,90.9 131.2,90.8 131.2,90.6 Z" id="Shape" fill="url(#linearGradient-4)"></path>
            <path d="M158.6,168.6 C158.4,166.7 156.7,165.3 154.8,165.4 C152.9,165.6 151.5,167.3 151.6,169.2 L151.6,169.4 C151.7,170.9 151.2,172.4 150.2,173.5 C149.2,174.6 147.8,175.3 146.3,175.4 C143.2,175.6 140.5,173.3 140.3,170.2 C140.1,167.1 142.4,164.4 145.5,164.2 C147.4,164.1 148.9,162.4 148.8,160.5 C148.7,158.6 147,157.1 145.1,157.2 C138.2,157.7 132.9,163.7 133.4,170.7 C133.6,174.1 135.2,177.1 137.7,179.4 C140,181.4 142.9,182.5 146,182.5 C146.3,182.5 146.6,182.5 146.9,182.5 C150.3,182.3 153.3,180.7 155.6,178.2 C157.8,175.7 158.9,172.4 158.7,169.1 C158.6,168.9 158.6,168.8 158.6,168.6 Z" id="Shape" fill="url(#linearGradient-5)"></path>
            <path d="M116.1,123.3 C109.7,119.3 102.1,118.1 94.8,119.9 C87.5,121.6 81.3,126.1 77.3,132.5 C73.3,138.9 72.1,146.5 73.9,153.8 C75.6,161.1 80.1,167.3 86.5,171.3 C91,174.1 96.1,175.5 101.3,175.5 C103.5,175.5 105.7,175.2 107.9,174.7 C115.2,173 121.4,168.5 125.4,162.1 C126.4,160.5 125.9,158.3 124.3,157.3 C122.7,156.3 120.5,156.8 119.5,158.4 C113.4,168.4 100.3,171.5 90.3,165.3 C85.5,162.3 82.1,157.7 80.8,152.1 C79.5,146.5 80.4,140.9 83.4,136.1 C86.4,131.3 91,127.9 96.6,126.6 C102.1,125.3 107.8,126.2 112.6,129.2 C116.3,131.5 119.2,134.8 120.9,138.8 C121.7,140.6 123.7,141.4 125.5,140.6 C127.3,139.8 128.1,137.8 127.3,136 C124.9,130.7 121,126.3 116.1,123.3 Z" id="Shape" fill="url(#linearGradient-6)"></path>
            <path d="M84.7,113.8 C89,111.1 91.9,106.9 93,101.9 C93.4,100.2 93.5,98.4 93.4,96.6 C93.3,94.7 91.6,93.2 89.7,93.3 C87.8,93.4 86.3,95.1 86.4,97 C86.5,98.1 86.4,99.2 86.1,100.3 C84.7,106.7 78.3,110.8 71.8,109.4 C65.4,108 61.3,101.6 62.7,95.1 C64.1,89 70,84.9 76.2,85.9 C78.1,86.2 79.9,84.9 80.2,83 C80.5,81.1 79.2,79.3 77.3,79 C67.5,77.5 58.1,83.9 55.9,93.6 C53.6,103.8 60.1,113.9 70.3,116.2 C71.7,116.5 73.1,116.7 74.5,116.7 C78.2,116.7 81.7,115.7 84.7,113.8 Z" id="Shape" fill="url(#linearGradient-7)"></path>
        </g>
    </g>
</svg>
